<svg width="1440" height="581" viewBox="0 0 1440 581" fill="none" xmlns="http://www.w3.org/2000/svg">
<path fill-rule="evenodd" clip-rule="evenodd" d="M0 0H1443.18V524.244L0 580.702V0Z" fill="url(#paint0_linear)"/>
<path opacity="0.1" d="M2 109C35.1371 109 62 82.1371 62 49C62 15.8629 35.1371 -11 2 -11C-31.1371 -11 -58 15.8629 -58 49C-58 82.1371 -31.1371 109 2 109Z" fill="white"/>
<path opacity="0.1" d="M54 407C87.1371 407 114 380.137 114 347C114 313.863 87.1371 287 54 287C20.8629 287 -6 313.863 -6 347C-6 380.137 20.8629 407 54 407Z" fill="white"/>
<path opacity="0.15" d="M254.5 423C309.452 423 354 378.452 354 323.5C354 268.548 309.452 224 254.5 224C199.548 224 155 268.548 155 323.5C155 378.452 199.548 423 254.5 423Z" fill="white"/>
<path opacity="0.1" d="M1248 438C1281.14 438 1308 411.137 1308 378C1308 344.863 1281.14 318 1248 318C1214.86 318 1188 344.863 1188 378C1188 411.137 1214.86 438 1248 438Z" fill="white"/>
<path opacity="0.1" d="M1300 371C1333.14 371 1360 344.137 1360 311C1360 277.863 1333.14 251 1300 251C1266.86 251 1240 277.863 1240 311C1240 344.137 1266.86 371 1300 371Z" fill="white"/>
<path opacity="0.1" d="M1262 179C1295.14 179 1322 152.137 1322 119C1322 85.8629 1295.14 59 1262 59C1228.86 59 1202 85.8629 1202 119C1202 152.137 1228.86 179 1262 179Z" fill="white"/>
<path opacity="0.1" d="M862 210C895.137 210 922 183.137 922 150C922 116.863 895.137 90 862 90C828.863 90 802 116.863 802 150C802 183.137 828.863 210 862 210Z" fill="white"/>
<defs>
<linearGradient id="paint0_linear" x1="1709.08" y1="475.176" x2="1614.95" y2="-168.465" gradientUnits="userSpaceOnUse">
<stop stop-color="#8DDAD5"/>
<stop offset="1" stop-color="#00CDAC"/>
</linearGradient>
</defs>
</svg>
